<svg style="position: absolute; width: 0; height: 0; overflow: hidden;" version="1.1" xmlns="http://www.w3.org/2000/svg" xmlns:xlink="http://www.w3.org/1999/xlink">
<defs>
<symbol id="icon-envelope" viewBox="0 0 28 28">
<title>envelope</title>
<path d="M28 11.094v12.406c0 1.375-1.125 2.5-2.5 2.5h-23c-1.375 0-2.5-1.125-2.5-2.5v-12.406c0.469 0.516 1 0.969 1.578 1.359 2.594 1.766 5.219 3.531 7.766 5.391 1.313 0.969 2.938 2.156 4.641 2.156h0.031c1.703 0 3.328-1.188 4.641-2.156 2.547-1.844 5.172-3.625 7.781-5.391 0.562-0.391 1.094-0.844 1.563-1.359zM28 6.5c0 1.75-1.297 3.328-2.672 4.281-2.438 1.687-4.891 3.375-7.313 5.078-1.016 0.703-2.734 2.141-4 2.141h-0.031c-1.266 0-2.984-1.437-4-2.141-2.422-1.703-4.875-3.391-7.297-5.078-1.109-0.75-2.688-2.516-2.688-3.938 0-1.531 0.828-2.844 2.5-2.844h23c1.359 0 2.5 1.125 2.5 2.5z"></path>
</symbol>
<symbol id="icon-linkedin-square" viewBox="0 0 24 28">
<title>linkedin-square</title>
<path d="M3.703 22.094h3.609v-10.844h-3.609v10.844zM7.547 7.906c-0.016-1.062-0.781-1.875-2.016-1.875s-2.047 0.812-2.047 1.875c0 1.031 0.781 1.875 2 1.875h0.016c1.266 0 2.047-0.844 2.047-1.875zM16.688 22.094h3.609v-6.219c0-3.328-1.781-4.875-4.156-4.875-1.937 0-2.797 1.078-3.266 1.828h0.031v-1.578h-3.609s0.047 1.016 0 10.844v0h3.609v-6.062c0-0.313 0.016-0.641 0.109-0.875 0.266-0.641 0.859-1.313 1.859-1.313 1.297 0 1.813 0.984 1.813 2.453v5.797zM24 6.5v15c0 2.484-2.016 4.5-4.5 4.5h-15c-2.484 0-4.5-2.016-4.5-4.5v-15c0-2.484 2.016-4.5 4.5-4.5h15c2.484 0 4.5 2.016 4.5 4.5z"></path>
</symbol>
<symbol id="icon-mark-github" viewBox="0 0 32 32">
<title>mark-github</title>
<path d="M16 0c-8.836 0-16 7.164-16 16 0 7.070 4.584 13.066 10.942 15.182 0.8 0.146 1.092-0.348 1.092-0.77 0-0.381-0.015-1.643-0.022-2.979-4.449 0.967-5.39-1.887-5.39-1.887-0.729-1.848-1.776-2.34-1.776-2.34-1.454-0.992 0.11-0.973 0.11-0.973 1.606 0.111 2.452 1.648 2.452 1.648 1.428 2.445 3.746 1.738 4.656 1.328 0.145-1.031 0.559-1.738 1.016-2.137-3.552-0.404-7.288-1.777-7.288-7.908 0-1.748 0.624-3.174 1.646-4.294-0.163-0.406-0.714-2.034 0.158-4.236 0 0 1.342-0.43 4.4 1.641 1.275-0.356 2.644-0.532 4.004-0.538 1.359 0.006 2.729 0.184 4.006 0.54 3.053-2.072 4.396-1.641 4.396-1.641 0.875 2.204 0.324 3.83 0.16 4.234 1.025 1.12 1.645 2.546 1.645 4.294 0 6.146-3.742 7.5-7.307 7.896 0.576 0.496 1.086 1.469 1.086 2.961 0 2.139-0.021 3.863-0.021 4.391 0 0.426 0.291 0.924 1.102 0.768 6.354-2.119 10.934-8.115 10.934-15.182 0-8.836-7.164-16-16-16z"></path>
</symbol>
</defs>
</svg>
